<svg version="1.1" id="Hkodp_xZQ" xmlns="http://www.w3.org/2000/svg" xmlns:xlink="http://www.w3.org/1999/xlink" x="0px" y="0px" viewBox="0 0 299 299" style="enable-background:new 0 0 299.7 299.9;" xml:space="preserve"><style>@-webkit-keyframes kf_ByXodpOg-X_rkv2T_x-X{0%{-webkit-transform: translate(0px, 0px) translate(0px, 0px) translate(0px, 0px);transform: translate(0px, 0px) translate(0px, 0px) translate(0px, 0px);}100%{-webkit-transform: translate(0px, 0px) translate(0px, 0px) translate(0px, -162px);transform: translate(0px, 0px) translate(0px, 0px) translate(0px, -162px);}}@keyframes kf_ByXodpOg-X_rkv2T_x-X{0%{-webkit-transform: translate(0px, 0px) translate(0px, 0px) translate(0px, 0px);transform: translate(0px, 0px) translate(0px, 0px) translate(0px, 0px);}100%{-webkit-transform: translate(0px, 0px) translate(0px, 0px) translate(0px, -162px);transform: translate(0px, 0px) translate(0px, 0px) translate(0px, -162px);}}#Hkodp_xZQ *{-webkit-animation-duration: 5s;animation-duration: 5s;-webkit-animation-iteration-count: 1;animation-iteration-count: 1;-webkit-animation-timing-function: cubic-bezier(0, 0, 1, 1);animation-timing-function: cubic-bezier(0, 0, 1, 1);}#B1fs_6dgbm{fill: #0DCEC8;}#rkLsupOxb7{opacity: 0.5;fill: #FFFFFF;enable-background: new;}#H1wsdadlbm{opacity: 0.4;fill: #FFFFFF;enable-background: new;}#ry_j_T_g-7{opacity: 0.4;fill: #FFFFFF;enable-background: new;}#Hytsd6dlW7{opacity: 0.3;fill: #FFFFFF;enable-background: new;}#BJcj_adl-X{opacity: 0.3;fill: #FFFFFF;enable-background: new;}#BkijdTdgWQ{opacity: 0.3;fill: #FFFFFF;enable-background: new;}#H12s_6ug-7{opacity: 0.4;fill: #FFFFFF;enable-background: new;}#B1aiup_l-Q{opacity: 0.5;fill: #FFFFFF;enable-background: new;}#ByCs_T_e-7{opacity: 0.2;fill: #FFFFFF;enable-background: new;}#SkkxouaOgbX{opacity: 0.5;fill: #FFFFFF;enable-background: new;}#Hkges_a_xbX{opacity: 0.4;fill: #FFFFFF;enable-background: new;}#By-gidpdlZX{opacity: 0.2;fill: #FFFFFF;enable-background: new;}#ByGxoOp_eWm{opacity: 0.4;fill: #FFFFFF;enable-background: new;}#Hy7xsOTulWm{opacity: 0.2;fill: #FFFFFF;enable-background: new;-webkit-transform:  matrix(0.6, -0.8, 0.8, 0.6, -15.635, 206.1927);transform:  matrix(0.6, -0.8, 0.8, 0.6, -15.635, 206.1927);}#HyVxidaOl-7{opacity: 0.3;fill: #FFFFFF;enable-background: new;}#HJBesOade-Q{opacity: 0.3;fill: #FFFFFF;enable-background: new;}#SyIlsupuebX{opacity: 0.5;fill: #FFFFFF;enable-background: new;}#SJPxiO6OeZ7{opacity: 0.3;fill: #FFFFFF;enable-background: new;}#Sy_lju6dgbQ{opacity: 0.2;fill: #FFFFFF;enable-background: new;}#r1txodaue-m{opacity: 0.2;fill: #FFFFFF;enable-background: new;}#BJqxo_TOlbm{opacity: 0.3;fill: #FFFFFF;enable-background: new;}#SyiliOa_gbX{opacity: 0.3;fill: #FFFFFF;enable-background: new;}#H1ngsOadgZ7{opacity: 0.3;fill: #FFFFFF;enable-background: new;}#H1aeodpOgbX{opacity: 0.3;fill: #FFFFFF;enable-background: new;}#r1Cxj_6_gbX{opacity: 0.5;fill: #FFFFFF;enable-background: new;}#SJ1WjdTug-m{opacity: 0.2;fill: #FFFFFF;enable-background: new;}#HylWj_adx-m{opacity: 0.4;fill: #FFFFFF;enable-background: new;}#rkWWiO6dgWQ{opacity: 0.2;fill: #FFFFFF;enable-background: new;}#ByGZoO6dlb7{opacity: 0.2;fill: #FFFFFF;enable-background: new;}#HJXZiup_lbX{opacity: 0.2;fill: #FFFFFF;enable-background: new;}#ry4ZidpulZQ{opacity: 0.5;fill: #FFFFFF;enable-background: new;}#SkLbjOaOgZm{opacity: 0.3;fill: #FFFFFF;enable-background: new;}#rkDbiOaOgbQ{opacity: 0.5;fill: #FFFFFF;enable-background: new;}#B1O-o_6_gWm{opacity: 0.3;fill: #FFFFFF;enable-background: new;}#rJYZod6Ox-X{opacity: 0.5;fill: #FFFFFF;enable-background: new;}#B19-oup_eWQ{opacity: 0.4;fill: #FFFFFF;enable-background: new;}#rkobju6dl-X{opacity: 0.3;fill: #FFFFFF;enable-background: new;}#Sknbj_6uxbQ{opacity: 0.3;fill: #FFFFFF;enable-background: new;}#rkpZsdpulZm{opacity: 0.3;fill: #FFFFFF;enable-background: new;}#Sy0WsuT_eZX{opacity: 0.4;fill: #FFFFFF;enable-background: new;}#r1JGjdT_eZm{opacity: 0.5;fill: #FFFFFF;enable-background: new;}#r1gMo_pulb7{opacity: 0.2;fill: #FFFFFF;enable-background: new;}#ry-zs_6ul-X{opacity: 0.2;fill: #FFFFFF;enable-background: new;}#BJGGodTOxWQ{opacity: 0.5;fill: #FFFFFF;enable-background: new;}#rk7Ms_adeZQ{opacity: 0.3;fill: #FFFFFF;enable-background: new;}#SJ4ModT_gZX{opacity: 0.2;fill: #FFFFFF;enable-background: new;}#H1SMoO6dlbX{opacity: 0.2;fill: #FFFFFF;enable-background: new;}#r1LGouaOlZQ{opacity: 0.4;fill: #FFFFFF;enable-background: new;}#SJvfs_pOe-7{opacity: 0.2;fill: #FFFFFF;enable-background: new;}#HkKziu6_xZ7{opacity: 0.2;fill: #FFFFFF;enable-background: new;}#rk9zoO6ux-X{opacity: 0.3;fill: #FFFFFF;enable-background: new;}#B1jfjup_xZQ{opacity: 0.3;fill: #FFFFFF;enable-background: new;}#Skhfj_6OlZ7{opacity: 0.5;fill: #FFFFFF;enable-background: new;}#r1aGs_6uxZ7{opacity: 0.4;fill: #FFFFFF;enable-background: new;}#H10zodTuebm{opacity: 0.4;fill: #FFFFFF;enable-background: new;}#B11moOaOxW7{opacity: 0.4;fill: #FFFFFF;enable-background: new;}#r1lXsdaOl-m{opacity: 0.4;fill: #FFFFFF;enable-background: new;}#HJZQo_6_ebQ{opacity: 0.4;fill: #FFFFFF;enable-background: new;}#S1f7od6uxbm{opacity: 0.3;fill: #FFFFFF;enable-background: new;}#Symmidpdx-m{opacity: 0.3;fill: #FFFFFF;enable-background: new;}#rk4XsdpugWX{opacity: 0.2;fill: #FFFFFF;enable-background: new;}#BkBmou6ux-m{opacity: 0.5;fill: #FFFFFF;enable-background: new;}#HkLXoOaugW7{opacity: 0.4;fill: #FFFFFF;enable-background: new;}#H1Pms_6_eWm{opacity: 0.4;fill: #FFFFFF;enable-background: new;}#HJ_Qjd6dgWQ{opacity: 0.3;fill: #FFFFFF;enable-background: new;}#HytmjOTdlZQ{opacity: 0.3;fill: #FFFFFF;enable-background: new;}#Hyc7sOTOeZX{opacity: 0.3;fill: #FFFFFF;enable-background: new;}#B1oQjdT_xW7{opacity: 0.2;fill: #FFFFFF;enable-background: new;}#S1h7j_6uebX{opacity: 0.3;fill: #FFFFFF;enable-background: new;}#rkp7s_T_xWX{opacity: 0.3;fill: #FFFFFF;enable-background: new;}#rk0mi_pulbX{opacity: 0.3;fill: #FFFFFF;enable-background: new;}#rkkViuTOxb7{opacity: 0.3;fill: #FFFFFF;enable-background: new;}#BkxVsOpdx-X{opacity: 0.5;fill: #FFFFFF;enable-background: new;}#SJ-4idp_lb7{opacity: 0.2;fill: #FFFFFF;enable-background: new;}#H1M4od6_eZX{opacity: 0.2;fill: #FFFFFF;enable-background: new;}#ByX4oOadeZ7{opacity: 0.5;fill: #FFFFFF;enable-background: new;}#HkBEjO6dgbQ{opacity: 0.2;fill: #FFFFFF;enable-background: new;}#rJL4jdaug-X{opacity: 0.3;fill: #FFFFFF;enable-background: new;}#S1w4odTOx-X{opacity: 0.5;fill: #FFFFFF;enable-background: new;}#HJn_pOx-X{opacity: 0.4;fill: #FFFFFF;enable-background: new;}#SJM3dpdebX{fill: #265677;}#S1H3_adgZQ{fill: #265677;}#HyU3Op_gbX{fill: #265677;}#B1dhO6OxZQ{fill: #FFFFFF;}#ByXodpOg-X_rkv2T_x-X{-webkit-animation-fill-mode: backwards;animation-fill-mode: backwards;-webkit-transform: translate(0px, 0px) translate(0px, 0px) translate(0px, 0px);transform: translate(0px, 0px) translate(0px, 0px) translate(0px, 0px);-webkit-animation-name: kf_ByXodpOg-X_rkv2T_x-X;animation-name: kf_ByXodpOg-X_rkv2T_x-X;-webkit-animation-timing-function: cubic-bezier(0, 0, 1, 1);animation-timing-function: cubic-bezier(0, 0, 1, 1);}</style>

<g id="HkgouT_lZQ">
	<g id="H1WiuTOxWQ">
		<path d="M149.7,13.4c-74.9,0-135.9,60.9-135.9,135.9s61,135.9,135.9,135.9c74.9,0,135.9-61,135.9-135.9&#10;&#9;&#9;&#9;C285.6,74.4,224.6,13.4,149.7,13.4z" id="B1fs_6dgbm"/>
	</g>
</g>
<g id="ByXodpOg-X_rkv2T_x-X" data-animator-group="true" data-animator-type="0"><g id="ByXodpOg-X">
	<g id="BJNsu6ug-X">
		<g id="S1SjuT_xWX">
			<circle cx="173.8" cy="124.7" r="10" id="rkLsupOxb7"/>
			<circle cx="183.1" cy="189.9" r="11.2" id="H1wsdadlbm"/>
			<circle cx="178.2" cy="101.8" r="10" id="ry_j_T_g-7"/>
			<circle cx="141.3" cy="132.2" r="10" id="Hytsd6dlW7"/>
			<circle cx="120.9" cy="157.7" r="8.5" id="BJcj_adl-X"/>
			<circle cx="94.7" cy="172.6" r="7.4" id="BkijdTdgWQ"/>
			<circle cx="144.4" cy="81.2" r="8.9" id="H12s_6ug-7"/>
			<circle cx="121.1" cy="136.3" r="8.5" id="B1aiup_l-Q"/>
			<circle cx="116.9" cy="180.6" r="11.5" id="ByCs_T_e-7"/>
			<circle cx="208.1" cy="182.4" r="11.5" id="SkkxouaOgbX"/>
			<circle cx="96.1" cy="146.1" r="14.4" id="Hkges_a_xbX"/>
			<circle cx="105.6" cy="116.8" r="11.5" id="By-gidpdlZX"/>
			<circle cx="142.6" cy="170.9" r="11.5" id="ByGxoOp_eWm"/>
			<ellipse cx="198.4" cy="118.7" rx="11.5" ry="11.5" id="Hy7xsOTulWm"/>
			<circle cx="189.1" cy="143.7" r="11.5" id="HyVxidaOl-7"/>
			<circle cx="93.8" cy="196.1" r="13.6" id="HJBesOade-Q"/>
			<circle cx="121.3" cy="92.4" r="12.6" id="SyIlsupuebX"/>
			<circle cx="156.3" cy="198.9" r="14" id="SJPxiO6OeZ7"/>
			<circle cx="161.5" cy="150.2" r="14" id="Sy_lju6dgbQ"/>
			<circle cx="151.2" cy="106.8" r="14" id="r1txodaue-m"/>
			<circle cx="136" cy="189.9" r="5.3" id="BJqxo_TOlbm"/>
			<circle cx="200.1" cy="162.5" r="5.3" id="SyiliOa_gbX"/>
			<circle cx="136.5" cy="151.5" r="5.3" id="H1ngsOadgZ7"/>
			<circle cx="200.8" cy="202.3" r="5.7" id="H1aeodpOgbX"/>
			<circle cx="163.9" cy="175" r="7.4" id="r1Cxj_6_gbX"/>
			<circle cx="163.6" cy="84.9" r="7.7" id="SJ1WjdTug-m"/>
			<circle cx="128.4" cy="117.2" r="7.3" id="HylWj_adx-m"/>
			<circle cx="131.7" cy="204" r="6.9" id="rkWWiO6dgWQ"/>
			<circle cx="157.4" cy="128.4" r="4.5" id="ByGZoO6dlb7"/>
			<circle cx="115.7" cy="200.3" r="5.3" id="HJXZiup_lbX"/>
			<circle cx="218.5" cy="143.2" r="14.2" id="ry4ZidpulZQ"/>
			<g id="HJrZi_aulWX">
				<circle cx="159.3" cy="63.8" r="8.1" id="SkLbjOaOgZm"/>
				<circle cx="140.7" cy="59.4" r="8.5" id="rkDbiOaOgbQ"/>
			</g>
			<circle cx="89.4" cy="251.9" r="13.4" id="B1O-o_6_gWm"/>
			<circle cx="173.8" cy="286.5" r="10" id="rJYZod6Ox-X"/>
			<circle cx="178.2" cy="263.6" r="10" id="B19-oup_eWQ"/>
			<circle cx="141.3" cy="294" r="10" id="rkobju6dl-X"/>
			<circle cx="180.9" cy="241.1" r="7.4" id="Sknbj_6uxbQ"/>
			<circle cx="78.9" cy="281.3" r="10.8" id="rkpZsdpulZm"/>
			<circle cx="144.4" cy="243" r="8.9" id="Sy0WsuT_eZX"/>
			<circle cx="121.1" cy="298" r="8.5" id="r1JGjdT_eZm"/>
			<circle cx="105.6" cy="278.6" r="11.5" id="r1gMo_pulb7"/>
			<ellipse cx="198.4" cy="280.5" rx="11.5" ry="11.5" id="ry-zs_6ul-X"/>
			<circle cx="121.3" cy="254.2" r="12.6" id="BJGGodTOxWQ"/>
			<ellipse cx="205.5" cy="249.8" rx="15.5" ry="15.5" id="rk7Ms_adeZQ"/>
			<circle cx="151.2" cy="268.6" r="14" id="SJ4ModT_gZX"/>
			<circle cx="163.6" cy="246.6" r="7.7" id="H1SMoO6dlbX"/>
			<circle cx="128.4" cy="279" r="7.3" id="r1LGouaOlZQ"/>
			<circle cx="157.4" cy="290.2" r="4.5" id="SJvfs_pOe-7"/>
			<g id="rkdGs_p_l-7">
				<circle cx="115.3" cy="224" r="13.4" id="HkKziu6_xZ7"/>
				<circle cx="159.3" cy="225.6" r="8.1" id="rk9zoO6ux-X"/>
				<circle cx="206.2" cy="220.9" r="9" id="B1jfjup_xZQ"/>
				<circle cx="140.7" cy="221.2" r="8.5" id="Skhfj_6OlZ7"/>
				<circle cx="182.3" cy="166.3" r="8.5" id="r1aGs_6uxZ7"/>
				<circle cx="182.3" cy="328.1" r="8.5" id="H10zodTuebm"/>
				<ellipse cx="181.7" cy="217.8" rx="12.4" ry="12.4" id="B11moOaOxW7"/>
				<circle cx="88.9" cy="225.4" r="8.2" id="r1lXsdaOl-m"/>
			</g>
		</g>
		<circle cx="183.1" cy="351.7" r="11.2" id="HJZQo_6_ebQ"/>
		<circle cx="120.9" cy="319.4" r="8.5" id="S1f7od6uxbm"/>
		<circle cx="94.7" cy="334.4" r="7.4" id="Symmidpdx-m"/>
		<circle cx="116.9" cy="342.3" r="11.5" id="rk4XsdpugWX"/>
		<circle cx="208.1" cy="344.1" r="11.5" id="BkBmou6ux-m"/>
		<circle cx="96.1" cy="307.9" r="14.4" id="HkLXoOaugW7"/>
		<circle cx="142.6" cy="332.6" r="11.5" id="H1Pms_6_eWm"/>
		<circle cx="189.1" cy="305.4" r="11.5" id="HJ_Qjd6dgWQ"/>
		<circle cx="93.8" cy="357.8" r="13.6" id="HytmjOTdlZQ"/>
		<circle cx="156.3" cy="360.7" r="14" id="Hyc7sOTOeZX"/>
		<circle cx="161.5" cy="312" r="14" id="B1oQjdT_xW7"/>
		<circle cx="136" cy="351.7" r="5.3" id="S1h7j_6uebX"/>
		<circle cx="200.1" cy="324.3" r="5.3" id="rkp7s_T_xWX"/>
		<circle cx="136.5" cy="313.2" r="5.3" id="rk0mi_pulbX"/>
		<circle cx="200.8" cy="364" r="5.7" id="rkkViuTOxb7"/>
		<circle cx="163.9" cy="336.7" r="7.4" id="BkxVsOpdx-X"/>
		<circle cx="131.7" cy="365.8" r="6.9" id="SJ-4idp_lb7"/>
		<circle cx="115.7" cy="362.1" r="5.3" id="H1M4od6_eZX"/>
		<circle cx="218.5" cy="304.9" r="14.2" id="ByX4oOadeZ7"/>
		<g id="HyNEsupOebm">
			<circle cx="115.3" cy="385.7" r="13.4" id="HkBEjO6dgbQ"/>
			<circle cx="159.3" cy="387.3" r="8.1" id="rJL4jdaug-X"/>
			<circle cx="140.7" cy="382.9" r="8.5" id="S1w4odTOx-X"/>
			<ellipse cx="181.7" cy="379.5" rx="12.4" ry="12.4" id="HJn_pOx-X"/>
		</g>
	</g>
</g></g>
<g id="rJxn_pdlbQ">
	<g id="HJ-ndTOeWX">
		<path d="M149.8,0C67.2,0,0,67.2,0,149.8s67.2,149.8,149.8,149.8s149.8-67.2,149.8-149.8C299.7,67.2,232.5,0,149.8,0z&#10;&#9;&#9;&#9; M85,178.1c0-46.2,64.9-120.6,64.9-120.6s64.9,74.5,64.9,120.6C214.8,263.7,85,263.7,85,178.1z" id="SJM3dpdebX"/>
		<g id="Hkm2Op_g-Q">
			<g id="S1Vh_aOxbm">
				<path d="M194.4,190.8c3.1-11.2,1.5-21.7-3.7-31.6c-1.9-3.7-1.5-6.2,1.2-7.9c2.4-1.5,5.2-0.6,6.9,2.4&#10;&#9;&#9;&#9;&#9;&#9;c7.5,14,9,28.7,3.5,44.3c-1.3,3.7-3.6,4.9-6.3,4c-2.7-0.9-3.6-3.3-2.5-7.2C193.8,193.4,194,192.1,194.4,190.8z" id="S1H3_adgZQ"/>
				<path d="M185.8,217.8c-0.5-0.4-1.5-1-2.1-1.9c-1.8-2.7-0.7-5.4,3.9-9.7c2.2-2,4.4-2.6,6.7-0.5&#10;&#9;&#9;&#9;&#9;&#9;c0.7,0.7,1.3,1.7,1.5,2.7C196.5,212.6,190.2,218.9,185.8,217.8z" id="HyU3Op_gbX"/>
			</g>
		</g>
	</g>
</g>
<g id="SyP3uT_g-X">
	<path d="M149.6,294.6c-19.6,0-38.5-3.8-56.4-11.4c-17.2-7.3-32.7-17.7-46-31c-13.3-13.3-23.7-28.8-31-46&#10;&#9;&#9;c-7.6-17.9-11.4-36.8-11.4-56.4c0-19.6,3.8-38.5,11.4-56.4c7.3-17.2,17.7-32.7,31-46c13.3-13.3,28.8-23.7,46-31&#10;&#9;&#9;c17.9-7.6,36.8-11.4,56.4-11.4s38.5,3.8,56.4,11.4c17.2,7.3,32.7,17.7,46,31c13.3,13.3,23.7,28.8,31,46&#10;&#9;&#9;c7.6,17.9,11.4,36.8,11.4,56.4c0,19.6-3.8,38.5-11.4,56.4c-7.3,17.2-17.7,32.7-31,46c-13.3,13.3-28.8,23.7-46,31&#10;&#9;&#9;C188.2,290.7,169.2,294.6,149.6,294.6z M149.6,9.4c-18.9,0-37.3,3.7-54.6,11c-16.7,7.1-31.7,17.2-44.6,30.1s-23,27.9-30.1,44.6&#10;&#9;&#9;c-7.3,17.3-11,35.7-11,54.6s3.7,37.3,11,54.6c7.1,16.7,17.2,31.7,30.1,44.6C63.3,261.8,78.3,272,95,279c17.3,7.3,35.7,11,54.6,11&#10;&#9;&#9;c18.9,0,37.3-3.7,54.6-11C221,272,236,261.8,248.9,249c12.9-12.9,23-27.9,30.1-44.6c7.3-17.3,11-35.7,11-54.6&#10;&#9;&#9;c0-18.9-3.7-37.3-11-54.6c-7.1-16.7-17.2-31.7-30.1-44.6c-12.9-12.9-27.9-23-44.6-30.1C187,13.1,168.6,9.4,149.6,9.4z" id="B1dhO6OxZQ"/>
</g>
</svg>