<?xml version="1.0" encoding="utf-8"?>
<!-- Generator: Adobe Illustrator 16.0.0, SVG Export Plug-In . SVG Version: 6.00 Build 0)  -->
<!DOCTYPE svg PUBLIC "-//W3C//DTD SVG 1.1//EN" "http://www.w3.org/Graphics/SVG/1.1/DTD/svg11.dtd">
<svg version="1.1" id="Layer_1" xmlns="http://www.w3.org/2000/svg" xmlns:xlink="http://www.w3.org/1999/xlink" x="0px" y="0px"
	 width="20px" height="20px" viewBox="490 490 20 20" enable-background="new 490 490 20 20" xml:space="preserve">
<g id="Layer_1_1_">
	<path fill="#03AFFF" d="M500,490.416c0,0-6.228,7.721-6.228,12.51c0,8.878,12.455,8.878,12.455,0
		C506.228,498.137,500,490.416,500,490.416z M498.198,506.504c-0.138,0.194-0.354,0.3-0.569,0.3c-0.133,0-0.269-0.04-0.387-0.121
		c-1.259-0.866-1.796-2.301-1.792-3.725c0-1.159,0.337-2.351,0.95-3.387c0.194-0.324,0.615-0.434,0.938-0.239
		c0.326,0.195,0.434,0.612,0.243,0.939c-0.492,0.822-0.76,1.798-0.759,2.687c0.003,1.111,0.393,2.038,1.197,2.593
		C498.33,505.767,498.41,506.193,498.198,506.504z"/>
</g>
</svg>
