<svg id="el_JAo_Yy94K" data-name="Hkodp xZQ" xmlns="http://www.w3.org/2000/svg" viewBox="0 0 735 110"><style>@-webkit-keyframes kf_el_bjYMmX5DoJ_an_vIPbhBnlA{55.56%{opacity: 0;}69.44%{opacity: 1;}0%{opacity: 0;}100%{opacity: 1;}}@keyframes kf_el_bjYMmX5DoJ_an_vIPbhBnlA{55.56%{opacity: 0;}69.44%{opacity: 1;}0%{opacity: 0;}100%{opacity: 1;}}@-webkit-keyframes kf_el_mvOx_onoPu_an_y2AidXygz{83.33%{opacity: 0;}97.22%{opacity: 1;}0%{opacity: 0;}100%{opacity: 1;}}@keyframes kf_el_mvOx_onoPu_an_y2AidXygz{83.33%{opacity: 0;}97.22%{opacity: 1;}0%{opacity: 0;}100%{opacity: 1;}}@-webkit-keyframes kf_el_dPTVbPFDQ9_an_ucond2hw7{69.44%{opacity: 0;}83.33%{opacity: 1;}0%{opacity: 0;}100%{opacity: 1;}}@keyframes kf_el_dPTVbPFDQ9_an_ucond2hw7{69.44%{opacity: 0;}83.33%{opacity: 1;}0%{opacity: 0;}100%{opacity: 1;}}@-webkit-keyframes kf_el_fJLay3Ag7H_an_OioSfQ01R{41.67%{opacity: 0;}55.56%{opacity: 1;}0%{opacity: 0;}100%{opacity: 1;}}@keyframes kf_el_fJLay3Ag7H_an_OioSfQ01R{41.67%{opacity: 0;}55.56%{opacity: 1;}0%{opacity: 0;}100%{opacity: 1;}}@-webkit-keyframes kf_el_XaOk7D-pGX_an_sWnuxPX9_{27.78%{opacity: 0;}41.67%{opacity: 1;}0%{opacity: 0;}100%{opacity: 1;}}@keyframes kf_el_XaOk7D-pGX_an_sWnuxPX9_{27.78%{opacity: 0;}41.67%{opacity: 1;}0%{opacity: 0;}100%{opacity: 1;}}@-webkit-keyframes kf_el_pkaxzFhHma_an_Jw-Qx_rYu{13.89%{opacity: 0;}27.78%{opacity: 1;}0%{opacity: 0;}100%{opacity: 1;}}@keyframes kf_el_pkaxzFhHma_an_Jw-Qx_rYu{13.89%{opacity: 0;}27.78%{opacity: 1;}0%{opacity: 0;}100%{opacity: 1;}}@-webkit-keyframes kf_el_i4DVgyxbAk_an_Mw6gfxBCN{0%{opacity: 0;}13.89%{opacity: 1;}100%{opacity: 1;}}@keyframes kf_el_i4DVgyxbAk_an_Mw6gfxBCN{0%{opacity: 0;}13.89%{opacity: 1;}100%{opacity: 1;}}#el_JAo_Yy94K *{-webkit-animation-duration: 1.2s;animation-duration: 1.2s;-webkit-animation-iteration-count: 1;animation-iteration-count: 1;-webkit-animation-timing-function: cubic-bezier(0, 0, 1, 1);animation-timing-function: cubic-bezier(0, 0, 1, 1);}#el_CKSEYy7SXz{isolation: isolate;}#el_i4DVgyxbAk{fill: #265677;-webkit-animation-fill-mode: forwards;animation-fill-mode: forwards;opacity: 0;-webkit-animation-name: kf_el_i4DVgyxbAk_an_Mw6gfxBCN;animation-name: kf_el_i4DVgyxbAk_an_Mw6gfxBCN;-webkit-animation-timing-function: cubic-bezier(0, 0, 1, 1);animation-timing-function: cubic-bezier(0, 0, 1, 1);}#el_pkaxzFhHma{fill: #265677;-webkit-animation-fill-mode: forwards;animation-fill-mode: forwards;opacity: 0;-webkit-animation-name: kf_el_pkaxzFhHma_an_Jw-Qx_rYu;animation-name: kf_el_pkaxzFhHma_an_Jw-Qx_rYu;-webkit-animation-timing-function: cubic-bezier(0, 0, 1, 1);animation-timing-function: cubic-bezier(0, 0, 1, 1);}#el_XaOk7D-pGX{fill: #265677;-webkit-animation-fill-mode: forwards;animation-fill-mode: forwards;opacity: 0;-webkit-animation-name: kf_el_XaOk7D-pGX_an_sWnuxPX9_;animation-name: kf_el_XaOk7D-pGX_an_sWnuxPX9_;-webkit-animation-timing-function: cubic-bezier(0, 0, 1, 1);animation-timing-function: cubic-bezier(0, 0, 1, 1);}#el_fJLay3Ag7H{fill: #265677;-webkit-animation-fill-mode: forwards;animation-fill-mode: forwards;opacity: 0;-webkit-animation-name: kf_el_fJLay3Ag7H_an_OioSfQ01R;animation-name: kf_el_fJLay3Ag7H_an_OioSfQ01R;-webkit-animation-timing-function: cubic-bezier(0, 0, 1, 1);animation-timing-function: cubic-bezier(0, 0, 1, 1);}#el_bjYMmX5DoJ{fill: #265677;-webkit-animation-fill-mode: forwards;animation-fill-mode: forwards;-webkit-animation-name: kf_el_bjYMmX5DoJ_an_vIPbhBnlA;animation-name: kf_el_bjYMmX5DoJ_an_vIPbhBnlA;-webkit-animation-timing-function: cubic-bezier(0, 0, 1, 1);animation-timing-function: cubic-bezier(0, 0, 1, 1);}#el_dPTVbPFDQ9{fill: #265677;-webkit-animation-fill-mode: forwards;animation-fill-mode: forwards;opacity: 0;-webkit-animation-name: kf_el_dPTVbPFDQ9_an_ucond2hw7;animation-name: kf_el_dPTVbPFDQ9_an_ucond2hw7;-webkit-animation-timing-function: cubic-bezier(0, 0, 1, 1);animation-timing-function: cubic-bezier(0, 0, 1, 1);}#el_mvOx_onoPu{fill: #265677;-webkit-animation-fill-mode: forwards;animation-fill-mode: forwards;opacity: 0;-webkit-animation-name: kf_el_mvOx_onoPu_an_y2AidXygz;animation-name: kf_el_mvOx_onoPu_an_y2AidXygz;-webkit-animation-timing-function: cubic-bezier(0, 0, 1, 1);animation-timing-function: cubic-bezier(0, 0, 1, 1);}#el_i4DVgyxbAk_an_4Vxo5kCRI{-webkit-transform: translate(-0.04467574506998062px, -0.013231097720563412px) translate(0.04467574506998062px, 0.013231097720563412px) translate(0px, 111px);transform: translate(-0.04467574506998062px, -0.013231097720563412px) translate(0.04467574506998062px, 0.013231097720563412px) translate(0px, 111px);}#el_pkaxzFhHma_an_YrPZt5JNn{-webkit-transform: translate(145.2899932861328px, 1.5299999713897705px) translate(-145.2899932861328px, -1.5299999713897705px) translate(0px, 111px);transform: translate(145.2899932861328px, 1.5299999713897705px) translate(-145.2899932861328px, -1.5299999713897705px) translate(0px, 111px);}#el_XaOk7D-pGX_an_XllOPXfHE{-webkit-transform: translate(233.46998596191406px, 1.5299997329711914px) translate(-233.46998596191406px, -1.5299997329711914px) translate(0px, 111px);transform: translate(233.46998596191406px, 1.5299997329711914px) translate(-233.46998596191406px, -1.5299997329711914px) translate(0px, 111px);}#el_fJLay3Ag7H_an_recdNbRV9{-webkit-transform: translate(301.13836669921875px, -0.00499066011980176px) translate(-301.13836669921875px, 0.00499066011980176px) translate(0px, 111px);transform: translate(301.13836669921875px, -0.00499066011980176px) translate(-301.13836669921875px, 0.00499066011980176px) translate(0px, 111px);}#el_bjYMmX5DoJ_an_d6-kCzKvT{-webkit-transform: translate(404.5787353515625px, -0.0001145373098552227px) translate(-404.5787353515625px, 0.0001145373098552227px) translate(0px, 111px);transform: translate(404.5787353515625px, -0.0001145373098552227px) translate(-404.5787353515625px, 0.0001145373098552227px) translate(0px, 111px);}#el_dPTVbPFDQ9_an_-FpNlPtcr{-webkit-transform: translate(527.654541015625px, -0.008187167346477509px) translate(-527.654541015625px, 0.008187167346477509px) translate(0px, 111px);transform: translate(527.654541015625px, -0.008187167346477509px) translate(-527.654541015625px, 0.008187167346477509px) translate(0px, 111px);}#el_mvOx_onoPu_an_X5CeEXtJv{-webkit-transform: translate(667.6300048828125px, 1.5299999713897705px) translate(-667.6300048828125px, -1.5299999713897705px) translate(0px, 111px);transform: translate(667.6300048828125px, 1.5299999713897705px) translate(-667.6300048828125px, -1.5299999713897705px) translate(0px, 111px);}</style><defs/><title>welcome</title><g id="el_CKSEYy7SXz"><path d="M.16,5.21A2.67,2.67,0,0,1,2.91,1.53H17a3.14,3.14,0,0,1,2.75,2.14L35.67,64.76h.62L60.63,1.68A2.47,2.47,0,0,1,63.23,0H66a2.48,2.48,0,0,1,2.6,1.68L93.08,64.76h.62L109.31,3.67a3.15,3.15,0,0,1,2.76-2.14h14.08a2.68,2.68,0,0,1,2.76,3.68L100,108.08a2.93,2.93,0,0,1-2.75,2.15H94.77a2.59,2.59,0,0,1-2.6-1.69L64.76,39.19H64L36.9,108.54a2.6,2.6,0,0,1-2.6,1.69H31.85a2.94,2.94,0,0,1-2.76-2.15Z" id="el_i4DVgyxbAk"/><path d="M145.29,4.44a2.91,2.91,0,0,1,2.91-2.91h62.3a2.91,2.91,0,0,1,2.91,2.91V17a2.91,2.91,0,0,1-2.91,2.91H165.19V45H203a3,3,0,0,1,2.91,2.91v12.7A2.91,2.91,0,0,1,203,63.53H165.19V90.32H210.5a2.91,2.91,0,0,1,2.91,2.91v12.56a2.9,2.9,0,0,1-2.91,2.9H148.2a2.9,2.9,0,0,1-2.91-2.9Z" id="el_pkaxzFhHma"/><path d="M233.47,4.44a2.9,2.9,0,0,1,2.9-2.91h14.09a3,3,0,0,1,2.91,2.91V90.32h39a2.9,2.9,0,0,1,2.9,2.91v12.56a2.9,2.9,0,0,1-2.9,2.9h-56a2.9,2.9,0,0,1-2.9-2.9Z" id="el_XaOk7D-pGX"/><path d="M357,0c15.46,0,26.64,4.9,37.05,14.24a2.85,2.85,0,0,1,.15,4.28l-9.34,9.65a2.46,2.46,0,0,1-3.83,0,36.18,36.18,0,0,0-23.57-9c-19.6,0-34.14,16.38-34.14,35.67,0,19.13,14.7,35.36,34.29,35.36,9.19,0,17-3.52,23.42-8.73a2.83,2.83,0,0,1,3.83,0l9.49,9.8c1.23,1.07.92,3.06-.15,4.14A52.57,52.57,0,0,1,357,110.23,55.12,55.12,0,1,1,357,0Z" id="el_fJLay3Ag7H"/><path d="M459.58,0a55.12,55.12,0,0,1,0,110.23,54.63,54.63,0,0,1-55-55A54.89,54.89,0,0,1,459.58,0Zm0,90.32a35.21,35.21,0,1,0,0-70.42c-19.29,0-35.06,16.08-35.06,35.37A35.15,35.15,0,0,0,459.58,90.32Z" id="el_bjYMmX5DoJ"/><path d="M545.92,2.3A2.59,2.59,0,0,1,548.68,0h2.45a2.79,2.79,0,0,1,2.6,1.53l33.68,72.26h.46L621.55,1.53A2.63,2.63,0,0,1,624.15,0h2.45a2.59,2.59,0,0,1,2.76,2.3l18.06,102.87a2.65,2.65,0,0,1-2.75,3.52H630.73a3.31,3.31,0,0,1-2.9-2.29l-9-58h-.46l-26.79,60.16a2.59,2.59,0,0,1-2.6,1.69h-2.76a2.76,2.76,0,0,1-2.6-1.69L556.49,48.38H556l-8.88,58a3,3,0,0,1-2.76,2.29H530.61c-2,0-3.21-1.37-2.91-3.52Z" id="el_dPTVbPFDQ9"/><path d="M667.63,4.44a2.91,2.91,0,0,1,2.91-2.91h62.3a2.91,2.91,0,0,1,2.91,2.91V17a2.91,2.91,0,0,1-2.91,2.91H687.53V45h37.81a3,3,0,0,1,2.91,2.91v12.7a2.91,2.91,0,0,1-2.91,2.91H687.53V90.32h45.31a2.91,2.91,0,0,1,2.91,2.91v12.56a2.9,2.9,0,0,1-2.91,2.9h-62.3a2.9,2.9,0,0,1-2.91-2.9Z" id="el_mvOx_onoPu"/></g></svg>